<?xml version="1.0" encoding="UTF-8"?>
<svg id="Layer_2" data-name="Layer 2" xmlns="http://www.w3.org/2000/svg" viewBox="0 0 516.43 144.91">
  <defs>
    <style>
      .cls-1 {
        fill: #f1eeeb;
      }
    </style>
  </defs>
  <g id="Camada_1" data-name="Camada 1">
    <g>
      <path class="cls-1" d="m80.7,87.33l11.12,14.12h-12.98L10.69,14.9v63.16c0,3.33.19,6.35.57,9.05.38,2.71.83,5.04,1.35,6.99.52,1.95,1.09,3.45,1.71,4.49.62,1.05,1.21,1.57,1.78,1.57v1.28H3.99v-1.28c.57,0,1.16-.52,1.78-1.57.62-1.04,1.19-2.54,1.71-4.49.52-1.95.97-4.28,1.35-6.99.38-2.71.57-5.73.57-9.05V13.33L0,1.35h12.98l66.44,84.41V24.59c0-3.33-.19-6.35-.57-9.05-.38-2.71-.83-5.01-1.35-6.92-.52-1.9-1.09-3.37-1.71-4.42-.62-1.04-1.21-1.57-1.78-1.57v-1.28h12.12v1.28c-.57,0-1.17.52-1.78,1.57-.62,1.05-1.19,2.52-1.71,4.42-.52,1.9-.98,4.21-1.35,6.92-.38,2.71-.57,5.73-.57,9.05v62.74Z"/>
      <path class="cls-1" d="m102.09,64.37c-1.81-6.75-2.21-13.45-1.21-20.1,1-6.65,3.11-12.78,6.35-18.39,3.23-5.61,7.46-10.48,12.69-14.61,5.23-4.13,11.22-7.1,17.97-8.91,6.75-1.8,13.45-2.23,20.1-1.28,6.65.95,12.78,3.04,18.39,6.27,5.61,3.23,10.48,7.49,14.61,12.76,4.13,5.28,7.1,11.29,8.91,18.04,1.8,6.75,2.23,13.43,1.28,20.03-.95,6.61-3.04,12.71-6.27,18.32-3.23,5.61-7.49,10.5-12.76,14.69-5.28,4.18-11.29,7.18-18.04,8.98-6.75,1.8-13.43,2.23-20.03,1.28-6.61-.95-12.71-3.07-18.32-6.35-5.61-3.28-10.5-7.53-14.69-12.76-4.18-5.23-7.18-11.21-8.98-17.96Zm87.69-23.53c-1.43-5.51-3.78-10.88-7.06-16.11-3.28-5.23-7.18-9.7-11.69-13.4-4.52-3.71-9.58-6.35-15.19-7.91-5.61-1.57-11.46-1.54-17.54.07-6.18,1.62-11.29,4.52-15.33,8.7-4.04,4.18-7.11,9.01-9.2,14.47-2.09,5.47-3.23,11.29-3.42,17.47-.19,6.18.43,12.03,1.85,17.54,1.52,5.51,3.9,10.86,7.13,16.04,3.23,5.18,7.13,9.62,11.69,13.33s9.62,6.37,15.19,7.98c5.56,1.62,11.43,1.57,17.61-.14,6.08-1.62,11.14-4.51,15.19-8.7,4.04-4.18,7.1-9,9.2-14.47,2.09-5.46,3.25-11.26,3.49-17.39.24-6.13-.41-11.95-1.93-17.47Z"/>
      <path class="cls-1" d="m226.99,2.63c-.29,0-.62.14-1,.43-.38.29-.74.81-1.07,1.57-.33.76-.64,1.85-.93,3.28-.29,1.43-.43,3.33-.43,5.7v75.57c0,2.28.14,4.16.43,5.63.29,1.47.59,2.59.93,3.35.33.76.69,1.28,1.07,1.57.38.29.71.43,1,.43v1.28h-16.68v-1.28c.19,0,.47-.14.86-.43.38-.29.74-.81,1.07-1.57.33-.76.64-1.88.93-3.35.29-1.47.43-3.35.43-5.63V13.61c0-2.38-.14-4.28-.43-5.7-.29-1.43-.59-2.52-.93-3.28-.33-.76-.69-1.28-1.07-1.57-.38-.29-.67-.43-.86-.43v-1.28h16.68v1.28Z"/>
      <path class="cls-1" d="m235.69,1.35h13.26l.14,15.11c1.62-4.75,4.54-8.51,8.77-11.26,4.23-2.76,9.05-4.42,14.47-4.99s11.05.02,16.9,1.78c5.85,1.76,11.22,4.73,16.11,8.91,4.89,4.18,8.91,9.62,12.05,16.33,3.14,6.7,4.71,14.76,4.71,24.17s-1.5,17.11-4.49,23.67c-3,6.56-7.15,11.91-12.48,16.04-5.32,4.13-11.6,7.15-18.82,9.05-7.23,1.9-15.07,2.85-23.53,2.85-4.18,0-8.46-.24-12.83-.71-4.37-.48-8.7-.76-12.98-.86h-1.28v-1.28c.19,0,.47-.14.86-.43.38-.29.74-.81,1.07-1.57.33-.76.64-1.88.93-3.35.29-1.47.43-3.35.43-5.63V13.61c0-2.38-.14-4.28-.43-5.7-.29-1.43-.59-2.52-.93-3.28-.33-.76-.69-1.28-1.07-1.57-.38-.29-.67-.43-.86-.43v-1.28Zm76.42,50.05c0-9.79-1.55-18.06-4.64-24.81-3.1-6.75-7-12.05-11.72-15.9-4.72-3.85-9.79-6.35-15.22-7.49-5.43-1.14-10.5-1.07-15.22.21-4.72,1.28-8.62,3.71-11.72,7.27-3.1,3.56-4.64,8.15-4.64,13.76v76.42c2.38.19,4.72.38,7,.57,2.29.19,4.52.29,6.72.29,7.81,0,14.77-1.16,20.86-3.49,6.1-2.33,11.27-5.65,15.5-9.98,4.24-4.32,7.48-9.6,9.72-15.83,2.24-6.22,3.36-13.24,3.36-21.03Z"/>
      <path class="cls-1" d="m333.93,13.61c0-2.38-.14-4.28-.43-5.7-.29-1.43-.59-2.52-.93-3.28-.33-.76-.69-1.28-1.07-1.57-.38-.29-.67-.43-.86-.43v-1.28h16.54v1.28c-.19,0-.48.14-.86.43-.38.29-.76.81-1.14,1.57-.38.76-.69,1.85-.93,3.28-.24,1.43-.36,3.33-.36,5.7v50.19c-.09,6.94.76,13.07,2.57,18.39.76,2.28,1.78,4.54,3.07,6.77,1.28,2.23,2.9,4.21,4.85,5.92,1.95,1.71,4.28,3.09,6.99,4.14,2.71,1.05,5.87,1.57,9.48,1.57s7.27-.47,11.26-1.43c3.99-.95,7.7-2.76,11.12-5.42,3.42-2.66,6.25-6.39,8.48-11.19,2.23-4.8,3.35-11.05,3.35-18.75V24.59c0-3.33-.19-6.35-.57-9.05-.38-2.71-.83-5.01-1.35-6.92-.52-1.9-1.09-3.37-1.71-4.42-.62-1.04-1.21-1.57-1.78-1.57v-1.28h12.12v1.28c-.57,0-1.17.52-1.78,1.57-.62,1.05-1.19,2.52-1.71,4.42-.52,1.9-.98,4.21-1.35,6.92-.38,2.71-.57,5.73-.57,9.05v39.21c0,5.99-.67,11.1-2,15.33-1.33,4.23-3.04,7.77-5.13,10.62-2.09,2.85-4.44,5.11-7.06,6.77-2.62,1.66-5.2,2.92-7.77,3.78s-4.97,1.4-7.2,1.64c-2.23.24-4.02.36-5.35.36s-3.21-.14-5.63-.43-5.06-.9-7.91-1.85c-2.85-.95-5.73-2.28-8.63-3.99-2.9-1.71-5.5-3.99-7.8-6.84s-4.2-6.35-5.7-10.48-2.25-9.1-2.25-14.9V13.61Z"/>
      <path class="cls-1" d="m422.33,64.37c-1.81-6.75-2.23-13.45-1.28-20.1.95-6.65,3.07-12.78,6.34-18.39,3.28-5.61,7.53-10.48,12.76-14.61,5.23-4.13,11.21-7.1,17.96-8.91,4.85-1.33,9.7-1.9,14.54-1.71,4.85.19,9.53,1,14.04,2.42,4.51,1.43,8.74,3.45,12.69,6.06,3.94,2.62,7.44,5.73,10.48,9.34l-3.42,12.55h-1.28c-2.19-4.37-4.9-8.53-8.13-12.48-3.23-3.94-6.84-7.25-10.84-9.91-3.99-2.66-8.34-4.51-13.05-5.56-4.71-1.04-9.62-.9-14.76.43-4.56,1.24-8.55,3.23-11.98,5.99-3.42,2.76-6.27,5.97-8.55,9.62-2.28,3.66-4.04,7.68-5.28,12.05-1.24,4.37-1.9,8.79-2,13.26h2.85c5.7,0,11.38-.26,17.04-.78,5.65-.52,10.76-1.16,15.33-1.92,5.32-.76,10.46-1.66,15.4-2.71h1.28v12.12h-1.28c-4.94-.95-10.08-1.85-15.4-2.71-4.56-.66-9.67-1.28-15.33-1.85-5.66-.57-11.33-.86-17.04-.86h-2.99c0,2.76.14,5.47.43,8.13.29,2.66.81,5.28,1.57,7.84,2.09,7.98,5.42,14.64,9.98,19.96,4.56,5.33,9.67,9.36,15.33,12.12,5.65,2.76,11.55,4.26,17.68,4.49,6.13.24,11.91-.78,17.32-3.07,5.42-2.28,10.15-5.75,14.19-10.41,4.04-4.66,6.77-10.55,8.2-17.68l1.28.29c-1.52,7.7-4.61,14.14-9.27,19.32-4.66,5.18-10.1,9.03-16.33,11.55-6.23,2.52-12.88,3.73-19.96,3.64-7.08-.1-13.86-1.54-20.32-4.35-6.46-2.8-12.24-6.96-17.32-12.48-5.09-5.51-8.72-12.41-10.91-20.67Z"/>
      <path class="cls-1" d="m135.96,126.82c1.52.78,2.69,1.88,3.5,3.32.81,1.44,1.22,3.13,1.22,5.08s-.41,3.64-1.22,5.07c-.81,1.43-1.98,2.52-3.5,3.28-1.52.76-3.32,1.13-5.4,1.13h-5.93v-19.05h5.93c2.08,0,3.88.39,5.4,1.16Zm.23,13.89c1.29-1.3,1.94-3.13,1.94-5.48s-.65-4.22-1.95-5.55c-1.3-1.33-3.18-2-5.62-2h-3.44v14.98h3.44c2.46,0,4.34-.65,5.63-1.95Z"/>
      <path class="cls-1" d="m154.64,125.66v19.05h-2.49v-19.05h2.49Z"/>
      <path class="cls-1" d="m178.34,140.48h-8.31l-1.53,4.24h-2.62l6.89-18.95h2.87l6.86,18.95h-2.62l-1.53-4.24Zm-.71-2.02l-3.44-9.62-3.44,9.62h6.89Z"/>
      <path class="cls-1" d="m220.54,126.82c1.52.78,2.69,1.88,3.5,3.32.81,1.44,1.22,3.13,1.22,5.08s-.41,3.64-1.22,5.07c-.81,1.43-1.98,2.52-3.5,3.28-1.52.76-3.32,1.13-5.4,1.13h-5.93v-19.05h5.93c2.08,0,3.88.39,5.4,1.16Zm.23,13.89c1.29-1.3,1.94-3.13,1.94-5.48s-.65-4.22-1.95-5.55c-1.3-1.33-3.18-2-5.62-2h-3.44v14.98h3.44c2.46,0,4.34-.65,5.63-1.95Z"/>
      <path class="cls-1" d="m248,140.48h-8.31l-1.53,4.24h-2.62l6.89-18.95h2.87l6.86,18.95h-2.62l-1.53-4.24Zm-.71-2.02l-3.44-9.62-3.44,9.62h6.89Z"/>
      <path class="cls-1" d="m293.84,144.71h-2.49l-10.01-15.17v15.17h-2.49v-19.08h2.49l10.01,15.15v-15.15h2.49v19.08Z"/>
      <path class="cls-1" d="m310.08,143.66c-1.46-.83-2.61-1.99-3.46-3.47-.85-1.49-1.27-3.16-1.27-5.02s.42-3.53,1.27-5.02c.85-1.48,2-2.64,3.46-3.47,1.46-.83,3.07-1.24,4.84-1.24s3.41.42,4.87,1.24c1.46.83,2.61,1.98,3.45,3.46.84,1.48,1.26,3.15,1.26,5.03s-.42,3.55-1.26,5.03c-.84,1.48-1.99,2.63-3.45,3.46-1.46.83-3.08,1.24-4.87,1.24s-3.38-.41-4.84-1.24Zm8.43-1.84c1.07-.62,1.9-1.5,2.51-2.65.61-1.15.92-2.48.92-3.99s-.31-2.87-.92-4c-.61-1.14-1.44-2.02-2.5-2.64-1.06-.62-2.26-.93-3.61-.93s-2.55.31-3.61.93-1.89,1.5-2.5,2.64c-.61,1.14-.92,2.47-.92,4s.3,2.84.92,3.99c.61,1.15,1.45,2.03,2.51,2.65,1.07.62,2.26.93,3.59.93s2.53-.31,3.6-.93Z"/>
      <path class="cls-1" d="m338.46,125.66v19.05h-2.49v-19.05h2.49Z"/>
      <path class="cls-1" d="m366.65,125.66l-7.19,19.05h-2.87l-7.19-19.05h2.65l5.99,16.43,5.99-16.43h2.62Z"/>
      <path class="cls-1" d="m388.84,140.48h-8.31l-1.53,4.24h-2.62l6.89-18.95h2.87l6.86,18.95h-2.62l-1.53-4.24Zm-.71-2.02l-3.44-9.62-3.44,9.62h6.89Z"/>
    </g>
  </g>
</svg>